<?xml version="1.0" encoding="UTF-8"?>
<svg version="1.1" xmlns="http://www.w3.org/2000/svg" width="128" height="128">
<path d="M0 0 C6.0722892 4.88423261 11.43597438 10.43640442 12.875 18.3125 C13.91197103 29.26550649 12.54199185 36.92398554 5.75 45.5625 C0.61625235 51.11759195 -6.58047178 54.75157497 -14.1328125 55.515625 C-22.23226461 55.69494866 -30.04073624 53.95891144 -36.52734375 48.8984375 C-42.36893828 43.09969085 -46.30735969 35.96511187 -46.55566406 27.69067383 C-46.58194957 19.74775606 -45.7232077 14.05653796 -41.125 7.3125 C-40.526875 6.384375 -39.92875 5.45625 -39.3125 4.5 C-28.23949798 -6.57300202 -13.3631812 -7.21611785 0 0 Z " fill="#000000" transform="translate(78.125,10.6875)"/>
<path d="M0 0 C0.73532959 0.03440186 1.47065918 0.06880371 2.22827148 0.10424805 C5.89597922 0.33923131 7.75347716 0.60648477 10.875 2.6875 C10.45927734 3.5228125 10.45927734 3.5228125 10.03515625 4.375 C9.67292969 5.138125 9.31070313 5.90125 8.9375 6.6875 C8.57785156 7.43 8.21820313 8.1725 7.84765625 8.9375 C6.68573373 11.82667065 6.68573373 11.82667065 6.6171875 15.65234375 C6.19667706 19.61265268 4.6910054 21.32340667 1.61914062 23.92382812 C0.51364929 24.79563836 -0.60341902 25.65300049 -1.73242188 26.49414062 C-7.08105795 31.10189637 -7.29516569 36.98176422 -7.90063477 43.63256836 C-7.97467529 44.6406958 -8.04871582 45.64882324 -8.125 46.6875 C-15.0115118 46.83971925 -21.89758945 46.94474395 -28.78540039 47.01708984 C-31.12801322 47.04725015 -33.47051325 47.08818517 -35.81274414 47.14013672 C-39.18143541 47.21298101 -42.54863323 47.24696479 -45.91796875 47.2734375 C-46.96397751 47.30440521 -48.00998627 47.33537292 -49.08769226 47.36727905 C-56.15514342 47.37054516 -56.15514342 47.37054516 -58.90847778 45.43144226 C-63.15333971 40.60803424 -62.7213386 36.10412026 -62.47265625 30.02734375 C-61.67186878 22.33438544 -57.98050253 16.69523617 -52.125 11.6875 C-36.40515869 1.64313386 -18.35637223 -0.90512362 0 0 Z " fill="#000000" transform="translate(68.125,69.3125)"/>
<path d="M0 0 C5.65842186 3.35748683 9.01834623 8.14105438 11.0546875 14.30859375 C12.61328751 20.65089687 11.70385218 25.48921562 8.90234375 31.26171875 C5.98527813 35.86268814 1.61182148 39.3437739 -3.4375 41.375 C-4.91768281 41.34501471 -6.39738694 41.27969508 -7.875 41.1875 C-11.87885626 41.44430711 -13.75644684 42.43446671 -16.3828125 45.328125 C-17.42684514 46.52693962 -18.46575005 47.73023545 -19.5 48.9375 C-22.95096245 52.8816073 -25.61494629 55.64655866 -30.9765625 56.3046875 C-35.22818924 56.45000808 -39.25751464 56.1637656 -43.4375 55.375 C-46.85409808 51.95840192 -46.25865044 47.14062587 -46.37451172 42.53491211 C-46.20353158 37.09849659 -45.17494938 34.15422661 -41.2409668 30.37939453 C-40.12042369 29.41678688 -38.99423041 28.4607183 -37.86254883 27.51123047 C-33.22677926 23.55940427 -32.27748218 20.83454389 -31.765625 14.9140625 C-31.1186585 9.90777413 -28.39237123 6.09786454 -24.66015625 2.80859375 C-17.55362612 -2.46496244 -8.21488482 -3.77821992 0 0 Z M-15.4375 17.375 C-15.95141252 20.31164297 -15.8499499 21.72376331 -14.25 24.25 C-12.42825745 25.62677597 -12.42825745 25.62677597 -9.875 25.1875 C-7.29308728 24.52872967 -7.29308728 24.52872967 -5.4375 22.375 C-4.93735047 19.91758463 -4.93735047 19.91758463 -5.4375 17.375 C-9.29979068 13.64145234 -11.57520932 13.64145234 -15.4375 17.375 Z " fill="#000000" transform="translate(110.4375,66.625)"/>
</svg>
