<?xml version="1.0" standalone="no"?>
<!DOCTYPE svg PUBLIC "-//W3C//DTD SVG 20010904//EN"
 "http://www.w3.org/TR/2001/REC-SVG-20010904/DTD/svg10.dtd">
<svg version="1.0" xmlns="http://www.w3.org/2000/svg"
 width="512.000000pt" height="512.000000pt" viewBox="0 0 512.000000 512.000000"
 preserveAspectRatio="xMidYMid meet">

<g transform="translate(0.000000,512.000000) scale(0.100000,-0.100000)"
fill="#000000" stroke="none">
<path d="M4552 5100 c-13 -12 -22 -33 -22 -50 0 -26 -4 -30 -37 -35 -73 -11
-118 -27 -165 -57 -57 -36 -90 -73 -126 -142 -26 -50 -27 -54 -32 -301 l-5
-251 -38 -63 c-45 -76 -54 -111 -37 -150 21 -52 53 -65 173 -69 l107 -4 0 -29
c0 -101 117 -209 226 -209 116 0 217 86 239 203 l7 37 82 0 c108 0 152 13 177
53 27 43 20 88 -22 157 l-34 55 -6 245 c-7 271 -13 298 -74 382 -57 78 -129
118 -257 143 -20 4 -28 13 -33 35 -14 64 -79 90 -123 50z m231 -263 c30 -18
56 -44 74 -75 l28 -47 5 -250 c4 -213 8 -255 23 -282 9 -18 17 -37 17 -43 0
-7 -106 -10 -330 -10 -181 0 -330 4 -330 9 0 5 10 30 22 57 20 45 22 71 27
294 6 233 7 247 29 282 25 40 76 76 126 89 17 4 83 7 147 6 105 -3 119 -5 162
-30z m-98 -879 c-10 -35 -52 -68 -86 -68 -35 0 -79 39 -79 70 0 19 6 20 86 20
84 0 85 0 79 -22z"/>
<path d="M152 4324 c-56 -28 -90 -63 -125 -128 -21 -39 -22 -55 -25 -311 -3
-262 -3 -271 18 -293 28 -30 82 -30 110 0 19 21 20 34 20 266 0 268 4 293 59
325 27 16 151 17 1834 17 1225 0 1814 3 1833 10 55 21 69 68 33 114 l-20 26
-1843 0 -1842 0 -52 -26z"/>
<path d="M477 3586 c-121 -33 -174 -167 -103 -260 19 -25 50 -44 116 -71 101
-42 119 -57 100 -80 -21 -25 -82 -18 -131 15 -51 35 -91 38 -119 10 -67 -67
34 -176 176 -188 74 -6 123 9 171 51 65 57 79 128 42 204 -25 52 -66 81 -165
119 -41 16 -74 32 -74 37 0 4 12 12 26 17 21 8 38 5 85 -16 51 -23 62 -25 88
-14 18 7 34 24 40 42 16 45 -7 81 -71 111 -68 32 -121 39 -181 23z"/>
<path d="M868 3584 c-15 -8 -30 -25 -34 -37 -3 -13 -4 -107 -2 -208 3 -183 3
-186 30 -227 75 -113 243 -134 349 -44 65 55 69 75 69 295 0 182 -1 195 -20
212 -28 25 -76 23 -103 -4 -21 -20 -22 -32 -25 -201 -3 -171 -5 -181 -25 -195
-30 -21 -79 -19 -105 5 -21 20 -22 29 -22 190 0 92 -3 176 -6 185 -6 15 -54
45 -71 45 -4 -1 -20 -7 -35 -16z"/>
<path d="M1410 3588 c-48 -26 -51 -45 -48 -301 l3 -239 25 -20 c22 -18 36 -19
145 -16 109 3 125 5 157 27 83 58 111 158 67 248 -18 37 -24 65 -24 124 0 67
-3 80 -28 112 -15 20 -42 45 -60 54 -42 22 -202 29 -237 11z m164 -144 c9 -3
16 -14 16 -24 0 -30 -66 -43 -76 -15 -14 36 17 56 60 39z m50 -226 c19 -31 -4
-53 -63 -56 l-51 -3 0 41 0 41 51 -3 c36 -2 55 -8 63 -20z"/>
<path d="M1972 3588 c-91 -20 -155 -121 -132 -207 15 -58 57 -93 155 -131 90
-35 106 -49 85 -75 -25 -30 -115 -12 -149 29 -35 42 -121 0 -121 -59 0 -38 63
-97 126 -119 158 -53 304 28 304 169 0 88 -42 133 -169 185 -45 18 -84 36 -87
41 -3 5 6 13 20 19 28 10 73 0 108 -24 32 -23 65 -20 93 9 48 47 22 107 -62
142 -62 26 -117 33 -171 21z"/>
<path d="M2513 3590 c-96 -20 -177 -83 -216 -169 -32 -69 -30 -179 6 -247 71
-140 239 -202 372 -140 59 27 105 77 105 112 0 32 -42 74 -73 74 -13 0 -41
-13 -62 -30 -61 -48 -144 -37 -194 26 -86 109 33 267 163 217 23 -8 55 -17 71
-20 41 -6 75 26 75 71 0 73 -131 129 -247 106z"/>
<path d="M2895 3590 c-47 -19 -50 -31 -53 -259 -2 -118 -1 -230 3 -249 8 -43
38 -72 75 -72 47 0 70 31 70 93 l1 52 65 -72 c56 -62 71 -73 98 -73 40 0 76
35 76 73 0 18 -18 48 -54 90 l-54 63 28 19 c131 88 92 291 -65 334 -46 13
-161 14 -190 1z m159 -150 c47 -17 27 -70 -26 -70 -26 0 -28 3 -28 40 0 43 8
48 54 30z"/>
<path d="M3370 3593 c-8 -3 -23 -12 -32 -21 -16 -14 -18 -40 -18 -269 0 -240
1 -254 20 -273 25 -25 71 -26 101 -1 l24 19 0 251 c0 237 -1 251 -20 270 -23
22 -53 32 -75 24z"/>
<path d="M3599 3589 c-45 -17 -49 -43 -49 -293 0 -300 -8 -286 156 -286 124 0
165 12 211 62 29 30 53 89 53 128 0 34 -23 96 -45 120 -12 14 -13 23 -4 49 26
73 -17 172 -88 206 -44 22 -193 31 -234 14z m171 -154 c18 -21 -4 -45 -41 -45
-26 0 -29 4 -29 30 0 26 3 30 29 30 16 0 34 -7 41 -15z m44 -217 c19 -31 -4
-53 -63 -56 l-51 -3 0 41 0 41 51 -3 c36 -2 55 -8 63 -20z"/>
<path d="M4055 3565 l-25 -24 0 -239 c0 -309 -10 -292 166 -292 111 0 126 2
144 20 30 30 27 83 -6 109 -21 16 -41 21 -90 21 l-64 0 0 30 c0 29 2 30 44 30
84 0 126 28 126 82 0 47 -23 63 -97 68 l-68 5 -3 33 -3 32 64 0 c50 0 70 5 91
21 33 26 36 79 6 109 -18 18 -33 20 -140 20 -115 0 -122 -1 -145 -25z"/>
<path d="M4550 3518 c-20 -21 -20 -32 -20 -522 0 -479 -1 -502 -20 -533 -40
-66 6 -63 -895 -63 l-816 0 -24 -25 c-32 -31 -32 -69 0 -101 l25 -24 842 2
c800 3 845 4 878 22 49 26 108 84 133 131 22 39 22 48 25 565 3 520 2 526 -18
548 -28 30 -82 30 -110 0z"/>
<path d="M21 3364 c-21 -26 -21 -37 -21 -455 0 -490 1 -497 82 -576 88 -84 13
-78 915 -81 794 -2 803 -2 823 18 30 30 27 83 -6 109 -26 21 -33 21 -796 21
-849 0 -808 -3 -848 63 -19 30 -20 53 -20 453 0 411 -1 422 -21 448 -15 19
-30 26 -54 26 -24 0 -39 -7 -54 -26z"/>
<path d="M2204 2697 c-28 -14 -65 -42 -82 -63 -63 -76 -62 -56 -62 -948 l0
-810 -42 41 c-56 54 -99 74 -168 80 -47 5 -67 1 -111 -19 -102 -47 -153 -123
-154 -228 0 -107 13 -124 327 -437 266 -264 286 -282 337 -297 47 -14 129 -16
600 -16 508 0 549 2 586 19 48 22 69 44 90 94 22 54 23 1387 0 1463 -37 125
-170 200 -292 165 -31 -9 -33 -8 -53 35 -50 103 -189 158 -294 118 -11 -4 -20
5 -32 35 -19 49 -91 115 -141 132 -21 7 -65 9 -104 7 l-68 -5 -3 247 -3 247
-30 49 c-64 102 -194 142 -301 91z m155 -153 l31 -26 0 -680 0 -680 29 -29
c35 -34 59 -36 94 -9 l26 21 3 365 3 366 28 24 c54 46 128 25 147 -44 6 -22
10 -173 10 -374 l0 -337 26 -20 c35 -27 57 -26 91 3 l28 24 3 279 c3 264 4
279 24 300 44 47 115 36 142 -22 13 -27 16 -78 16 -297 0 -291 -1 -288 62
-303 22 -6 33 -1 58 23 l30 30 0 194 c0 181 1 196 20 216 43 46 109 41 140
-11 19 -31 20 -51 18 -717 l-3 -685 -530 -3 c-291 -1 -541 0 -555 3 -29 7
-533 504 -557 549 -33 63 20 146 94 146 32 0 47 -11 147 -110 128 -125 157
-140 200 -97 l26 26 0 911 c0 790 2 915 15 940 29 56 85 66 134 24z"/>
</g>
</svg>
